<svg width="113" height="151" viewBox="0 0 113 151" fill="none" xmlns="http://www.w3.org/2000/svg">
<path id="Arrow 1" d="M14.7328 1.28004C14.3352 0.55327 13.4237 0.286436 12.6969 0.684051L0.853535 7.16362C0.126766 7.56124 -0.140067 8.47273 0.257549 9.19949C0.655176 9.92627 1.56667 10.1931 2.29344 9.79548L12.8209 4.03587L18.5805 14.5633C18.9781 15.2901 19.8896 15.5569 20.6164 15.1593C21.3431 14.7617 21.61 13.8502 21.2123 13.1234L14.7328 1.28004ZM112.539 147.429C47.6288 154.022 -8.60422 82.5638 14.8564 2.42141L11.9773 1.57856C-11.9246 83.2282 45.2852 157.276 112.842 150.413L112.539 147.429Z" fill="#BD4A65"/>
</svg>
