<svg width="30" height="30" viewBox="0 0 30 30" fill="none" xmlns="http://www.w3.org/2000/svg">
<path d="M16.0999 26.0748H8.51238C4.07488 26.0748 2.49988 22.9623 2.49988 20.0623V9.9373C2.49988 5.6123 4.18738 3.9248 8.51238 3.9248H16.0999C20.4249 3.9248 22.1124 5.6123 22.1124 9.9373V20.0623C22.1124 24.3873 20.4249 26.0748 16.0999 26.0748ZM8.51238 5.8248C5.24988 5.8248 4.39988 6.6748 4.39988 9.9373V20.0623C4.39988 21.5998 4.93738 24.1748 8.51238 24.1748H16.0999C19.3624 24.1748 20.2124 23.3248 20.2124 20.0623V9.9373C20.2124 6.6748 19.3624 5.8248 16.0999 5.8248H8.51238Z" fill="#7B7B7B"/>
<path d="M25.9745 22.6376C25.437 22.6376 24.7495 22.4626 23.962 21.9126L20.6245 19.5751C20.3745 19.4001 20.2245 19.1126 20.2245 18.8001V11.2001C20.2245 10.8876 20.3745 10.6001 20.6245 10.4251L23.962 8.08762C25.4495 7.05012 26.537 7.35012 27.0495 7.61262C27.562 7.88762 28.437 8.60012 28.437 10.4126V19.5751C28.437 21.3876 27.562 22.1126 27.0495 22.3751C26.812 22.5126 26.437 22.6376 25.9745 22.6376ZM22.112 18.3001L25.0495 20.3501C25.612 20.7376 26.012 20.7751 26.1745 20.6876C26.3495 20.6001 26.537 20.2501 26.537 19.5751V10.4251C26.537 9.73762 26.337 9.40012 26.1745 9.31262C26.012 9.22512 25.612 9.26262 25.0495 9.65012L22.112 11.7001V18.3001Z" fill="#7B7B7B"/>
<path d="M14.3749 14.6875C12.8249 14.6875 11.5624 13.425 11.5624 11.875C11.5624 10.325 12.8249 9.0625 14.3749 9.0625C15.9249 9.0625 17.1874 10.325 17.1874 11.875C17.1874 13.425 15.9249 14.6875 14.3749 14.6875ZM14.3749 10.9375C13.8624 10.9375 13.4374 11.3625 13.4374 11.875C13.4374 12.3875 13.8624 12.8125 14.3749 12.8125C14.8874 12.8125 15.3124 12.3875 15.3124 11.875C15.3124 11.3625 14.8874 10.9375 14.3749 10.9375Z" fill="#7B7B7B"/>
</svg>
