<svg width="82" height="82" viewBox="0 0 82 82" fill="none" xmlns="http://www.w3.org/2000/svg">
    <rect width="82" height="82" rx="41" fill="#E9E0D1" fill-opacity="0.6" />
    <path
        d="M41.0005 72.3866C23.6867 72.3866 9.61377 58.3136 9.61377 40.9998C9.61377 23.686 23.6867 9.6131 41.0005 9.6131C58.3143 9.6131 72.3873 23.686 72.3873 40.9998C72.3873 58.3136 58.3143 72.3866 41.0005 72.3866ZM41.0005 13.9926C26.1101 13.9926 13.9933 26.1094 13.9933 40.9998C13.9933 55.8903 26.1101 68.007 41.0005 68.007C55.891 68.007 68.0077 55.8903 68.0077 40.9998C68.0077 26.1094 55.891 13.9926 41.0005 13.9926Z"
        fill="#BD4A65" />
    <path
        d="M36.8539 51.4526C36.27 51.4526 35.7152 51.219 35.3065 50.8102L27.0437 42.5475C26.197 41.7008 26.197 40.2993 27.0437 39.4526C27.8904 38.6059 29.2919 38.6059 30.1386 39.4526L36.8539 46.1679L51.8612 31.1607C52.7079 30.314 54.1093 30.314 54.956 31.1607C55.8027 32.0074 55.8027 33.4088 54.956 34.2555L38.4013 50.8102C37.9926 51.219 37.4378 51.4526 36.8539 51.4526Z"
        fill="#BD4A65" />
</svg>