<svg width="58" height="58" viewBox="0 0 58 58" fill="none" xmlns="http://www.w3.org/2000/svg">
    <rect width="58" height="58" rx="29" fill="#E9E0D1" fill-opacity="0.6" />
    <path
        d="M29.0002 51.2003C16.7538 51.2003 6.7998 41.2463 6.7998 28.9999C6.7998 16.7536 16.7538 6.79956 29.0002 6.79956C41.2465 6.79956 51.2006 16.7536 51.2006 28.9999C51.2006 41.2463 41.2465 51.2003 29.0002 51.2003ZM29.0002 9.89729C18.4679 9.89729 9.89753 18.4677 9.89753 28.9999C9.89753 39.5322 18.4679 48.1026 29.0002 48.1026C39.5325 48.1026 48.1028 39.5322 48.1028 28.9999C48.1028 18.4677 39.5325 9.89729 29.0002 9.89729Z"
        fill="#BD4A65" />
    <path
        d="M26.0673 36.3933C25.6542 36.3933 25.2619 36.2281 24.9727 35.9389L19.1284 30.0946C18.5295 29.4957 18.5295 28.5044 19.1284 27.9055C19.7273 27.3066 20.7185 27.3066 21.3174 27.9055L26.0673 32.6554L36.6822 22.0405C37.2811 21.4416 38.2723 21.4416 38.8712 22.0405C39.4701 22.6394 39.4701 23.6306 38.8712 24.2295L27.1618 35.9389C26.8727 36.2281 26.4803 36.3933 26.0673 36.3933Z"
        fill="#BD4A65" />
</svg>