<svg xmlns="http://www.w3.org/2000/svg" width="42" height="42" viewBox="0 0 42 42" fill="none">
    <path
        d="M38.248 18.0303C38.3985 18.9998 38.5 19.9868 38.5 21C38.5 31.6312 29.8812 40.25 19.25 40.25C8.61875 40.25 0 31.6312 0 21C0 10.3688 8.61875 1.75 19.25 1.75C23.3572 1.75 27.1565 3.04675 30.282 5.23775L27.7935 7.7875C25.3295 6.18975 22.4 5.25 19.25 5.25C10.5665 5.25 3.5 12.3165 3.5 21C3.5 29.6835 10.5665 36.75 19.25 36.75C27.8145 36.75 34.7882 29.876 34.9825 21.3587L38.248 18.0303ZM36.582 3.79225L20.125 20.6605L13.3998 14.336L7.9835 19.7575L20.125 31.5L42 9.21025L36.582 3.79225Z"
        fill="#BD4A65" />
</svg>