<svg width="24" height="26" viewBox="0 0 24 26" fill="none" xmlns="http://www.w3.org/2000/svg">
<path fill-rule="evenodd" clip-rule="evenodd" d="M20.5043 4.34352C18.2481 2.05746 15.2477 0.797963 12.0511 0.796616C5.46446 0.796616 0.103746 6.22169 0.101166 12.8899C0.100251 15.0215 0.650543 17.1021 1.69629 18.9363L0.000976562 25.2034L6.33579 23.5215C8.08119 24.4851 10.0463 24.9929 12.0463 24.9936H12.0512C18.6371 24.9936 23.9983 19.5679 24.001 12.8995C24.0022 9.66795 22.7604 6.6294 20.5043 4.34343V4.34352ZM12.0512 22.9511H12.0472C10.265 22.9504 8.5169 22.4658 6.99193 21.55L6.62928 21.3321L2.8701 22.3301L3.87349 18.6206L3.63733 18.2403C2.6431 16.6399 2.11802 14.7901 2.11877 12.8907C2.12093 7.3483 6.57652 2.83919 12.0551 2.83919C14.708 2.84012 17.2018 3.88713 19.0771 5.7872C20.9523 7.68719 21.9844 10.2128 21.9834 12.8988C21.9811 18.4415 17.5256 22.951 12.0512 22.951V22.9511ZM17.4992 15.4225C17.2007 15.2712 15.7327 14.5403 15.459 14.4393C15.1853 14.3385 14.9863 14.2881 14.7872 14.5906C14.5882 14.8931 14.016 15.5738 13.8417 15.7755C13.6676 15.9772 13.4934 16.0025 13.1949 15.8512C12.8964 15.6999 11.9342 15.3808 10.7938 14.3512C9.90616 13.5499 9.30693 12.5603 9.13277 12.2578C8.9586 11.9553 9.11421 11.7917 9.26366 11.641C9.39797 11.5056 9.56223 11.2881 9.71152 11.1116C9.8608 10.9352 9.91057 10.809 10.0101 10.6075C10.1096 10.4058 10.0599 10.2294 9.98521 10.0781C9.91057 9.92684 9.31342 8.43936 9.06461 7.83424C8.82221 7.24504 8.57607 7.32488 8.39283 7.31553C8.21883 7.30678 8.01962 7.30492 7.82057 7.30492C7.62152 7.30492 7.29807 7.38055 7.02438 7.68307C6.75069 7.98567 5.97938 8.71678 5.97938 10.2041C5.97938 11.6914 7.04926 13.1285 7.19855 13.3301C7.34783 13.5319 9.30402 16.5841 12.2992 17.8932C13.0116 18.2045 13.5678 18.3905 14.0014 18.5297C14.7167 18.7598 15.3676 18.7273 15.8821 18.6494C16.4557 18.5627 17.6486 17.9185 17.8975 17.2126C18.1462 16.5066 18.1462 15.9015 18.0716 15.7755C17.9969 15.6495 17.7979 15.5738 17.4993 15.4226L17.4992 15.4225Z" fill="#F4F4F4"/>
</svg>
